<svg width="79" height="158" viewBox="0 0 79 158" fill="none" xmlns="http://www.w3.org/2000/svg">
<path d="M66.975 0H11.3044C5.06446 0 0 5.08827 0 11.3822V146.249C0 152.532 5.05347 157.631 11.3044 157.631H66.975C73.215 157.631 78.2794 152.543 78.2794 146.255V11.3822C78.2765 8.36438 77.0846 5.47096 74.9652 3.33701C72.8459 1.20307 69.9723 0.00292854 66.975 0ZM33.4958 12.5216H44.7892C45.3385 12.5216 45.7944 12.964 45.7944 13.5171C45.7944 14.0702 45.3385 14.5126 44.7837 14.5126H33.4958C32.9465 14.5126 32.496 14.0702 32.496 13.5171C32.496 12.964 32.9355 12.5216 33.4848 12.5216H33.4958ZM25.6134 11.3822C26.1379 11.3822 26.6409 11.592 27.0117 11.9654C27.3825 12.3388 27.5909 12.8452 27.5909 13.3733C27.5909 13.9014 27.3825 14.4078 27.0117 14.7812C26.6409 15.1546 26.1379 15.3644 25.6134 15.3644C25.089 15.3644 24.586 15.1546 24.2152 14.7812C23.8443 14.4078 23.636 13.9014 23.636 13.3733C23.636 12.8452 23.8443 12.3388 24.2152 11.9654C24.586 11.592 25.089 11.3822 25.6134 11.3822ZM39.1425 151.946C38.1037 151.946 37.0752 151.74 36.1155 151.339C35.1559 150.939 34.2839 150.352 33.5494 149.613C32.8149 148.873 32.2323 147.995 31.8348 147.029C31.4373 146.063 31.2327 145.027 31.2327 143.981C31.2327 142.936 31.4373 141.9 31.8348 140.934C32.2323 139.967 32.8149 139.089 33.5494 138.35C34.2839 137.61 35.1559 137.024 36.1155 136.623C37.0752 136.223 38.1037 136.017 39.1425 136.017C41.2403 136.017 43.2522 136.856 44.7355 138.35C46.2189 139.843 47.0523 141.869 47.0523 143.981C47.0523 146.094 46.2189 148.119 44.7355 149.613C43.2522 151.107 41.2403 151.946 39.1425 151.946ZM74.0389 129.17C74.0389 129.623 73.861 130.057 73.5441 130.379C73.2271 130.7 72.7968 130.882 72.3471 130.885H5.93234C5.48264 130.882 5.05234 130.7 4.73537 130.379C4.41841 130.057 4.24051 129.623 4.24052 129.17V27.8859C4.24052 26.9457 4.99855 26.1714 5.93234 26.1714H72.3416C73.2754 26.1714 74.0444 26.9457 74.0444 27.8859L74.0389 129.17Z" fill="black"/>
<g clip-path="url(#clip0_1_122)">
<path d="M64.8487 62.7184H58.603V90.4511H64.8487V62.7184Z" fill="black"/>
<path d="M27.0937 62.7184H21.7402V84.9508H27.0937V62.7184Z" fill="black"/>
<path d="M33.5071 84.9508V62.7184L34.7582 62.7156L38.8619 62.7184L38.8606 84.9508H33.5071Z" fill="black"/>
<path d="M56.9301 62.7184H53.417V84.9508H56.9301V62.7184Z" fill="black"/>
<path d="M20.4011 62.7184H17.7244V90.4511H20.4011V62.7184Z" fill="black"/>
<path d="M32.4472 62.7184H29.7705V84.9508H32.4472V62.7184Z" fill="black"/>
<path d="M52.8027 62.7184H50.126V84.9508H52.8027V62.7184Z" fill="black"/>
<path d="M42.8762 62.7184H40.1995V84.9508H42.8762V62.7184Z" fill="black"/>
<path d="M16.8322 62.7184H15.1035V90.4511H16.8322V62.7184Z" fill="black"/>
<path d="M69.701 85.4658V95.4365H60.4993V92.9718H67.3035V85.4658H69.701Z" fill="black"/>
<path d="M10.9761 60.3685V67.8745H8.63452V57.9053H17.7525C17.7832 57.9053 17.8404 58.0028 17.8376 58.0502L17.8111 60.3154L17.7441 60.3614L10.9761 60.37V60.3685Z" fill="black"/>
<path d="M48.9544 62.7184H47.1699V84.9508H48.9544V62.7184Z" fill="black"/>
<path d="M69.701 67.8759H67.3035V60.3685L61.8928 60.37L61.8942 57.9053H69.6172L69.701 67.8759Z" fill="black"/>
<path d="M10.9761 85.4658V92.9718H16.3868V95.4365H8.63447L8.57861 85.4658H10.9761Z" fill="black"/>
<path d="M14.3232 62.7184H13.4309V90.4511H14.3232V62.7184Z" fill="black"/>
<path d="M28.8783 62.7184H27.9861V84.9508H28.8783V62.7184Z" fill="black"/>
<path d="M46.2777 62.7184H45.3855V84.9508H46.2777V62.7184Z" fill="black"/>
<path d="M22.8964 85.7642C23.913 85.562 23.7859 87.7957 23.5974 88.3767C23.4089 88.9577 22.7708 89.0452 22.4971 88.556C22.2513 88.1142 22.2667 86.6953 22.4385 86.2133C22.5153 85.9967 22.6647 85.8116 22.8964 85.7657V85.7642ZM22.895 86.0497C22.8141 86.0756 22.768 86.1545 22.7331 86.2276C22.5809 86.5418 22.5641 88.2404 22.7736 88.5015C22.9453 88.7167 23.2679 88.5431 23.3447 88.2878C23.448 87.942 23.4759 86.4256 23.2748 86.1545C23.1813 86.0282 23.0445 86.0038 22.8964 86.0497H22.895Z" fill="black"/>
<path d="M46.8768 85.7628C47.339 85.6595 47.5694 86.0311 47.6476 86.4357C47.7495 86.9564 47.797 88.3337 47.3963 88.7052C47.1547 88.929 46.7567 88.9061 46.5557 88.6464C46.2625 88.2677 46.2666 86.7183 46.416 86.2649C46.4789 86.0741 46.6772 85.8073 46.8768 85.7614V85.7628ZM46.8754 86.0498C46.7917 86.0756 46.7218 86.1846 46.6953 86.2664C46.5794 86.6164 46.5487 88.1687 46.754 88.4456C46.8754 88.6091 47.2064 88.6364 47.2971 88.4327C47.4451 88.1041 47.4731 86.3769 47.2301 86.1229C47.1365 86.0254 46.9997 86.011 46.8754 86.0512V86.0498Z" fill="black"/>
<path d="M39.1816 85.7643C39.5279 85.7055 39.7709 85.892 39.8826 86.2205C40.0362 86.6724 40.0292 87.9693 39.8686 88.4198C39.6773 88.9563 39.0224 89.0109 38.7627 88.5173C38.5295 88.0726 38.5533 86.6925 38.7236 86.2119C38.8046 85.9838 38.9359 85.8059 39.183 85.7643H39.1816ZM39.095 88.5475C39.3576 88.5963 39.5028 88.5905 39.6131 88.3308C39.7485 88.0124 39.7737 86.2879 39.5056 86.0928C39.1802 85.8547 38.961 86.2248 38.9205 86.5318C38.88 86.8388 38.8633 88.4141 39.095 88.5475Z" fill="black"/>
<path d="M42.6403 85.7643C43.3064 85.671 43.4083 86.4902 43.4362 86.9823C43.4725 87.6006 43.4712 89.1256 42.4951 88.8086C41.9687 88.6378 41.9994 87.2247 42.0413 86.757C42.0762 86.3496 42.1851 85.8288 42.6403 85.7643ZM42.5789 86.0483C42.2201 86.1775 42.2536 88.1271 42.4602 88.4442C42.6501 88.7354 42.9783 88.5876 43.0606 88.2634C43.1542 87.8976 43.1458 86.922 43.0941 86.5318C43.0578 86.2535 42.9042 85.9307 42.5789 86.0483Z" fill="black"/>
<path d="M44.3117 85.7643C44.7962 85.6682 45.0252 86.0569 45.0923 86.483C45.1677 86.9665 45.1844 87.9865 45.0057 88.4269C44.7697 89.0123 44.0967 88.9994 43.8775 88.4183C43.7099 87.975 43.6792 86.3066 43.9892 85.9493C44.0478 85.8819 44.2265 85.7786 44.3117 85.7628V85.7643ZM44.3089 86.0498C43.9794 86.1545 44.0199 87.5862 44.0478 87.9004C44.1176 88.7024 44.6999 88.8602 44.813 88.1156C44.8647 87.7699 44.8842 86.3525 44.6636 86.1215C44.57 86.0239 44.4332 86.0096 44.3089 86.0498Z" fill="black"/>
<path d="M48.6068 85.7629C49.1723 85.6524 49.3594 86.2377 49.3999 86.6982C49.4515 87.295 49.5339 89.2476 48.4671 88.8028C47.9323 88.5805 47.9812 87.021 48.0692 86.5318C48.1278 86.2047 48.2423 85.8332 48.6068 85.7629ZM48.604 86.0498C48.523 86.0756 48.4769 86.1545 48.442 86.2277C48.3052 86.5103 48.3038 87.668 48.3415 88.0167C48.4196 88.7282 49.0047 88.7971 49.108 88.0583C49.1569 87.7111 49.1806 86.3539 48.9586 86.1215C48.8651 86.024 48.7282 86.0111 48.604 86.0498Z" fill="black"/>
<path d="M36.6167 85.7629C37.0481 85.6983 37.2268 85.9465 37.3274 86.3238C37.453 86.7973 37.5201 88.4256 37.1054 88.7311C36.6111 89.0955 36.1894 88.6824 36.0875 88.1702C35.9771 87.6136 35.878 85.8719 36.6181 85.7615L36.6167 85.7629ZM36.6139 86.0498C36.484 86.0914 36.3863 86.3525 36.3653 86.4831C36.2941 86.9249 36.2815 87.8374 36.3905 88.2634C36.4994 88.6895 36.942 88.6924 37.0635 88.2893C37.1682 87.9363 37.1989 86.3855 36.9699 86.123C36.882 86.0226 36.7339 86.014 36.6153 86.0513L36.6139 86.0498Z" fill="black"/>
<path d="M25.995 85.9421C26.2449 85.661 26.749 85.7126 26.9514 86.0426C27.2265 86.4887 27.2307 88.1601 26.9263 88.5905C26.6791 88.9391 26.1067 88.9506 25.9098 88.546C25.6933 88.1013 25.6668 86.3152 25.995 85.9436V85.9421ZM26.2938 86.0483C25.9419 86.1703 25.9628 88.1601 26.1737 88.4456C26.2882 88.5991 26.5842 88.6292 26.6973 88.47C26.8872 88.206 26.8649 86.9478 26.8132 86.5849C26.7713 86.2879 26.6708 85.9178 26.2924 86.0483H26.2938Z" fill="black"/>
<path d="M32.3215 85.7643C32.6622 85.6969 32.9135 85.902 33.0224 86.2219C33.1816 86.6925 33.2081 88.3007 32.8688 88.678C32.5938 88.9822 32.0883 88.8789 31.9151 88.5073C31.6987 88.0425 31.6847 86.6466 31.8802 86.1717C31.9612 85.9737 32.1092 85.8073 32.3229 85.7657L32.3215 85.7643ZM32.3187 86.0498C31.9738 86.1574 32.0296 87.5734 32.0548 87.9033C32.0799 88.2333 32.2167 88.8703 32.644 88.5044C32.9177 88.2706 32.9065 86.4357 32.6971 86.1545C32.6035 86.0283 32.4667 86.0039 32.3187 86.0498Z" fill="black"/>
<path d="M30.593 85.7643C31.5899 85.5663 31.481 87.4615 31.3819 88.0669C31.2981 88.5833 31.0454 89.0281 30.4631 88.7928C29.98 88.5977 30.0149 87.3266 30.047 86.8675C30.0735 86.4716 30.1336 85.8561 30.593 85.7643ZM30.9267 88.5446C31.2059 88.3581 31.185 86.3711 30.9462 86.1215C30.8038 85.9723 30.5566 85.9996 30.4477 86.189C30.2718 86.4974 30.2704 88.0525 30.4282 88.371C30.5217 88.559 30.741 88.668 30.9267 88.5432V88.5446Z" fill="black"/>
<path d="M53.7941 85.7642C54.2381 85.7011 54.4559 86.0899 54.5174 86.4844C54.5928 86.9664 54.6151 88.0955 54.4071 88.5187C54.2116 88.9175 53.6461 88.9778 53.3891 88.6163C53.1127 88.2275 53.135 86.6709 53.2872 86.2219C53.3724 85.9694 53.5274 85.8015 53.7941 85.7642ZM53.734 86.0497C53.6433 86.0784 53.6126 86.1559 53.5804 86.2362C53.431 86.6035 53.4045 88.074 53.5902 88.4111C53.6977 88.6062 53.9533 88.6722 54.1138 88.5029C54.3009 88.3035 54.2898 86.9091 54.2535 86.5848C54.2199 86.2778 54.0887 85.9392 53.734 86.0511V86.0497Z" fill="black"/>
<path d="M34.8865 85.7642C35.2063 85.7011 35.4339 85.8417 35.5582 86.1372C35.7341 86.5533 35.7397 87.909 35.6098 88.3437C35.4074 89.018 34.6492 89.0438 34.4271 88.3882C34.2819 87.9578 34.2708 86.351 34.5389 85.9837C34.6017 85.8977 34.786 85.7843 34.8865 85.7657V85.7642ZM34.8851 86.0497C34.8097 86.0741 34.7539 86.1559 34.7218 86.2262C34.5738 86.5547 34.5528 88.1644 34.7623 88.4441C34.8865 88.6105 35.1323 88.6191 35.2635 88.4441C35.473 88.1644 35.4828 86.374 35.2398 86.12C35.1463 86.0225 35.0094 86.0081 34.8851 86.0483V86.0497Z" fill="black"/>
<path d="M28.028 85.7642C28.4119 85.6882 28.6675 85.9421 28.761 86.3022C28.8937 86.8144 28.9607 88.3509 28.5418 88.6995C27.9414 89.2016 27.5406 88.5402 27.4848 87.9563C27.4331 87.4227 27.3633 85.8948 28.028 85.7628V85.7642ZM28.0252 86.0497C27.6803 86.1588 27.7319 87.6264 27.7641 87.9578C27.8381 88.7124 28.4175 88.9132 28.5292 88.0582C28.5753 87.7067 28.6032 86.3553 28.3798 86.1215C28.2863 86.0239 28.1494 86.011 28.0252 86.0497Z" fill="black"/>
<path d="M55.4655 85.7642C55.8132 85.6954 56.0603 85.8962 56.1664 86.2219C56.3214 86.701 56.3633 88.3509 55.9849 88.7052C55.6735 88.9979 55.196 88.853 55.0312 88.4771C54.8762 88.1228 54.8804 86.8416 54.9474 86.4356C54.9977 86.1358 55.1513 85.8259 55.4655 85.7628V85.7642ZM55.4627 86.0497C55.3887 86.0727 55.3593 86.1301 55.3203 86.1903C55.1569 86.4385 55.1639 87.6752 55.2002 88.0166C55.2909 88.8573 55.9137 88.7698 55.9835 87.8473C56.0128 87.4542 56.1301 85.8417 55.4627 86.0512V86.0497Z" fill="black"/>
<path d="M40.6073 88.7138C40.2512 88.3838 40.2847 86.9507 40.3741 86.4758C40.4718 85.9536 40.8614 85.4873 41.3738 85.8933C41.8151 86.2419 41.7746 87.9133 41.5972 88.4197C41.459 88.8157 40.9312 89.0136 40.6073 88.7138ZM41.2454 86.11C41.1253 85.9866 40.8963 86.021 40.7804 86.1501C40.5207 86.4414 40.5193 88.2318 40.786 88.5015C40.9396 88.6564 41.156 88.6048 41.2719 88.4312C41.4772 88.1213 41.4883 86.3596 41.2454 86.1114V86.11Z" fill="black"/>
<path d="M52.0641 85.7643C53.0667 85.5921 52.955 87.8674 52.719 88.4442C52.4551 89.0926 51.6927 88.9635 51.5335 88.2304C51.4246 87.734 51.4051 86.3726 51.7123 85.978C51.7988 85.8676 51.9259 85.7872 52.0641 85.7643ZM51.9245 86.1115C51.6718 86.3539 51.683 88.1343 51.884 88.4427C51.9887 88.602 52.2513 88.6436 52.3839 88.5015C52.6213 88.2462 52.5766 86.9062 52.5179 86.5318C52.4705 86.2262 52.2387 85.8102 51.9245 86.1115Z" fill="black"/>
<path d="M24.6265 85.7629C25.643 85.6108 25.5286 87.9765 25.2563 88.5331C24.9686 89.1185 24.2453 88.8631 24.0959 88.229C23.9647 87.6724 23.8767 85.8748 24.6265 85.7614V85.7629ZM24.6237 86.0512C24.2858 86.1545 24.2844 87.2965 24.3026 87.6178C24.3193 87.9206 24.4506 88.9664 24.9491 88.5073C25.2172 88.2606 25.2186 86.3396 24.9463 86.0971C24.8569 86.0168 24.7327 86.0182 24.6223 86.0512H24.6237Z" fill="black"/>
<path d="M50.3369 85.7629C51.2571 85.6251 51.1873 87.3094 51.13 87.9004C51.0854 88.3552 50.9499 88.833 50.4319 88.8487C49.8245 88.8674 49.7533 87.9636 49.7351 87.5016C49.717 87.0153 49.7379 85.8518 50.3383 85.7629H50.3369ZM50.6693 86.1115C50.4193 85.8719 50.1428 86.1387 50.0828 86.4242C49.9976 86.8273 49.9529 88.2132 50.2127 88.4987C50.4067 88.7124 50.6343 88.5891 50.7433 88.3624C50.9024 88.0296 50.9136 86.3453 50.6693 86.11V86.1115Z" fill="black"/>
<path d="M22.8951 86.0497C23.0431 86.0024 23.1799 86.0282 23.2735 86.1544C23.4746 86.4256 23.4466 87.942 23.3433 88.2877C23.2679 88.5431 22.944 88.7167 22.7722 88.5015C22.5628 88.2404 22.5795 86.5418 22.7317 86.2276C22.7666 86.1544 22.8127 86.0755 22.8937 86.0497H22.8951Z" fill="white"/>
<path d="M46.8755 86.0497C46.9997 86.0096 47.1366 86.0239 47.2301 86.1215C47.4731 86.3754 47.4438 88.1041 47.2972 88.4312C47.205 88.6349 46.8755 88.6077 46.754 88.4441C46.5487 88.1673 46.5794 86.615 46.6953 86.2649C46.7219 86.1832 46.7931 86.0756 46.8755 86.0483V86.0497Z" fill="white"/>
<path d="M39.0951 88.5475C38.8647 88.4126 38.8814 86.8288 38.9205 86.5318C38.9596 86.2348 39.1803 85.8547 39.5056 86.0928C39.7737 86.2894 39.7472 88.0123 39.6131 88.3308C39.5028 88.5905 39.3576 88.5962 39.0951 88.5475Z" fill="white"/>
<path d="M42.5788 86.0483C42.9041 85.9307 43.0577 86.2535 43.094 86.5318C43.1457 86.9234 43.1541 87.8975 43.0605 88.2634C42.9781 88.5876 42.65 88.7354 42.4601 88.4441C42.2534 88.1271 42.2199 86.1774 42.5788 86.0483Z" fill="white"/>
<path d="M44.3089 86.0497C44.4331 86.0096 44.57 86.0239 44.6635 86.1215C44.8841 86.3525 44.8646 87.7699 44.8129 88.1156C44.6998 88.8602 44.1176 88.7038 44.0477 87.9004C44.0198 87.5862 43.9793 86.1545 44.3089 86.0497Z" fill="white"/>
<path d="M48.604 86.0497C48.7297 86.011 48.8651 86.0239 48.9587 86.1215C49.1807 86.3539 49.1569 87.711 49.1081 88.0582C49.0048 88.797 48.4197 88.7282 48.3415 88.0166C48.3038 87.668 48.3038 86.5102 48.442 86.2276C48.4769 86.1544 48.523 86.0755 48.604 86.0497Z" fill="white"/>
<path d="M36.6139 86.0497C36.7326 86.0124 36.8806 86.0211 36.9686 86.1215C37.1976 86.384 37.1683 87.9348 37.0621 88.2878C36.9421 88.6923 36.5036 88.7081 36.3891 88.2619C36.2746 87.8158 36.2928 86.9234 36.364 86.4816C36.3849 86.3525 36.4827 86.0899 36.6125 86.0483L36.6139 86.0497Z" fill="white"/>
<path d="M26.2938 86.0483C26.6722 85.9163 26.7727 86.2879 26.8146 86.5848C26.8663 86.9478 26.8886 88.206 26.6987 88.4699C26.5842 88.6292 26.2896 88.6005 26.1751 88.4456C25.9642 88.1601 25.9433 86.1717 26.2952 86.0483H26.2938Z" fill="white"/>
<path d="M32.3187 86.0497C32.4667 86.0024 32.6036 86.0282 32.6971 86.1544C32.9066 86.4371 32.9178 88.2705 32.6441 88.5044C32.2168 88.8702 32.08 88.2318 32.0548 87.9033C32.0297 87.5747 31.9738 86.1573 32.3187 86.0497Z" fill="white"/>
<path d="M30.9267 88.5446C30.741 88.6694 30.5218 88.5604 30.4282 88.3724C30.2705 88.054 30.2719 86.4988 30.4478 86.1904C30.5567 86.001 30.8038 85.9737 30.9463 86.1229C31.185 86.3726 31.206 88.3581 30.9267 88.546V88.5446Z" fill="white"/>
<path d="M53.734 86.0497C54.0886 85.9378 54.2199 86.2764 54.2534 86.5834C54.2883 86.9076 54.3009 88.3035 54.1137 88.5015C53.9532 88.6722 53.6976 88.6048 53.5901 88.4097C53.4044 88.0725 53.4296 86.602 53.5804 86.2348C53.6125 86.1544 53.6446 86.077 53.734 86.0483V86.0497Z" fill="white"/>
<path d="M34.8852 86.0497C35.0109 86.011 35.1463 86.0239 35.2399 86.1215C35.4828 86.3754 35.473 88.1644 35.2636 88.4455C35.1323 88.6206 34.888 88.612 34.7623 88.4455C34.5515 88.1658 34.5738 86.5561 34.7218 86.2276C34.7539 86.1573 34.8098 86.0741 34.8852 86.0512V86.0497Z" fill="white"/>
<path d="M28.025 86.0497C28.1507 86.011 28.2861 86.0239 28.3797 86.1215C28.6031 86.3553 28.5752 87.7067 28.5291 88.0582C28.416 88.9132 27.8365 88.7124 27.7639 87.9578C27.7318 87.6264 27.6815 86.1588 28.025 86.0497Z" fill="white"/>
<path d="M55.4628 86.0498C56.1302 85.8404 56.0129 87.4529 55.9836 87.846C55.9138 88.7684 55.2924 88.8574 55.2003 88.0152C55.164 87.6752 55.157 86.4372 55.3204 86.189C55.3595 86.1287 55.3902 86.0713 55.4628 86.0484V86.0498Z" fill="white"/>
<path d="M41.2455 86.1101C41.4885 86.3583 41.4773 88.1214 41.2721 88.4299C41.1562 88.6034 40.9397 88.6551 40.7861 88.5002C40.5194 88.2304 40.5208 86.44 40.7806 86.1488C40.8964 86.0197 41.1254 85.9867 41.2455 86.1086V86.1101Z" fill="white"/>
<path d="M51.9245 86.1114C52.2387 85.8101 52.4704 86.2262 52.5179 86.5317C52.5766 86.9062 52.6212 88.2461 52.3839 88.5015C52.2512 88.6435 51.9887 88.6019 51.884 88.4427C51.6829 88.1342 51.6718 86.3538 51.9245 86.1114Z" fill="white"/>
<path d="M24.6237 86.0511C24.734 86.0181 24.8582 86.0167 24.9476 86.097C25.2185 86.3395 25.2185 88.259 24.9504 88.5072C24.4519 88.9677 24.3207 87.9205 24.3039 87.6178C24.2858 87.2964 24.2872 86.1544 24.6251 86.0511H24.6237Z" fill="white"/>
<path d="M50.6693 86.1114C50.9136 86.3467 50.9024 88.0309 50.7433 88.3637C50.6343 88.5904 50.4067 88.7138 50.2127 88.5C49.9529 88.2145 49.9976 86.8287 50.0828 86.4256C50.1428 86.1401 50.4193 85.8718 50.6693 86.1128V86.1114Z" fill="white"/>
</g>
<defs>
<clipPath id="clip0_1_122">
<rect width="61.1223" height="37.5312" fill="white" transform="translate(8.57861 57.9053)"/>
</clipPath>
</defs>
</svg>
