<svg width="117" height="117" viewBox="0 0 117 117" fill="none" xmlns="http://www.w3.org/2000/svg">
<path d="M69.1389 36.6666H18.1944C17.2293 36.6666 16.3038 36.2832 15.6213 35.6008C14.9389 34.9184 14.5555 33.9928 14.5555 33.0277V18.4721C14.5555 17.507 14.9389 16.5815 15.6213 15.8991C16.3038 15.2166 17.2293 14.8333 18.1944 14.8333H69.1389C70.104 14.8333 71.0295 15.2166 71.712 15.8991C72.3944 16.5815 72.7778 17.507 72.7778 18.4721V33.0277C72.7778 33.9928 72.3944 34.9184 71.712 35.6008C71.0295 36.2832 70.104 36.6666 69.1389 36.6666ZM21.8333 29.3888H65.5V21.8927H21.8333V29.3888Z" fill="black"/>
<path d="M69.1389 44.2356H18.1944C17.2293 44.2356 16.3038 44.619 15.6213 45.3014C14.9389 45.9838 14.5555 46.9094 14.5555 47.8745V62.1389C14.5555 63.104 14.9389 64.0296 15.6213 64.712C16.3038 65.3944 17.2293 65.7778 18.1944 65.7778H59.5322L72.7778 52.3139V47.8745C72.7778 46.9094 72.3944 45.9838 71.712 45.3014C71.0295 44.619 70.104 44.2356 69.1389 44.2356ZM65.5 58.5H21.8333V51.2223H65.5V58.5Z" fill="black"/>
<path d="M32.9683 107.661V107.443L34.1328 102.385H7.27778V7.55561H80.0556V44.8542L87.3333 37.9767V3.91672C87.3333 2.95163 86.95 2.02606 86.2675 1.34364C85.5851 0.661214 84.6595 0.277832 83.6945 0.277832H3.63889C2.6738 0.277832 1.74823 0.661214 1.06581 1.34364C0.383382 2.02606 0 2.95163 0 3.91672V105.806C0 106.771 0.383382 107.696 1.06581 108.379C1.74823 109.061 2.6738 109.444 3.63889 109.444H32.75C32.7795 108.846 32.8525 108.25 32.9683 107.661Z" fill="black"/>
<path d="M14.5555 91.0318C14.5555 91.9969 14.9389 92.9224 15.6213 93.6049C16.3038 94.2873 17.2293 94.6707 18.1944 94.6707H35.8067L36.8983 89.9401L37.3714 87.9387V87.7568H21.8333V80.3334H44.9039L52.1817 73.0557H18.1944C17.2293 73.0557 16.3038 73.439 15.6213 74.1215C14.9389 74.8039 14.5555 75.7295 14.5555 76.6946V91.0318Z" fill="black"/>
<path d="M114.589 53.6602L102.326 41.3972C101.781 40.8514 101.135 40.4185 100.423 40.123C99.7111 39.8276 98.948 39.6755 98.1772 39.6755C97.4065 39.6755 96.6434 39.8276 95.9316 40.123C95.2197 40.4185 94.5732 40.8514 94.0289 41.3972L44.1398 91.5774L40.0278 109.08C39.8739 109.836 39.8704 110.614 40.0176 111.37C40.1649 112.127 40.4599 112.847 40.8858 113.489C41.3117 114.131 41.8601 114.683 42.4997 115.113C43.1392 115.543 43.8573 115.842 44.6128 115.994C44.988 116.031 45.3657 116.031 45.7409 115.994C46.187 116.064 46.6412 116.064 47.0873 115.994L64.7359 112.101L114.589 62.1388C115.133 61.5977 115.565 60.9542 115.86 60.2454C116.155 59.5366 116.307 58.7764 116.307 58.0087C116.307 57.241 116.155 56.4808 115.86 55.772C115.565 55.0632 115.133 54.4197 114.589 53.8785V53.6602ZM61.0242 105.478L47.7059 108.425L50.9445 95.2163L88.3523 57.4083L98.6139 67.6699L61.0242 105.478ZM102.726 63.558L92.4642 53.2963L98.25 47.5833L108.584 57.9177L102.726 63.558Z" fill="black"/>
</svg>
