<svg width="552" height="240" viewBox="0 0 552 240" fill="none" xmlns="http://www.w3.org/2000/svg">
<g clip-path="url(#clip0_1_57)">
<path d="M325.68 145.69H316.39V108.54H304.38V101.29H337.77V108.54H325.68V145.69Z" fill="#4B4E60"/>
<path d="M364.21 145.69H354.92V108.54H342.91V101.29H376.29V108.54H364.21V145.69Z" fill="#4B4E60"/>
<path d="M399.79 109.46H399.11L388.08 145.69H378.79L392.31 101.29H406.51L420.03 145.69H410.74L407.95 136.38L399.79 109.46Z" fill="#4B4E60"/>
<path d="M430.76 101.29H439.82L456.29 126.22C457.05 127.4 457.55 128.28 457.8 128.85C458.05 129.42 458.2 130.06 458.25 130.77H458.7V101.29H467.99V145.68H458.85L442.46 120.75C441.7 119.61 441.21 118.76 440.99 118.19C440.76 117.62 440.6 116.96 440.5 116.2H440.05V145.68H430.76V101.29Z" fill="#4B4E60"/>
<path d="M245.59 101.21L228.14 119.52V101.21H218.86V145.77H228.14V126.48L247.01 145.77H261.92L236.42 122.15L258 101.21" fill="#4B4E60"/>
<path d="M487.11 138.46H505.97V145.68H477.85V101.44H505.97V108.66H487.11V120.2H502.58V126.93H487.11V138.46Z" fill="#4B4E60"/>
<path d="M276.6 138.46H295.46V145.68H267.34V101.44H295.46V108.66H276.6V120.2H292.07V126.93H276.6V138.46Z" fill="#4B4E60"/>
<path d="M524.91 101.29H515.62V145.68H524.91V101.29Z" fill="#4B4E60"/>
<path d="M551.88 101.29H542.59V145.68H551.88V101.29Z" fill="#4B4E60"/>
<path d="M539.75 120.2H527.75V126.93H539.75V120.2Z" fill="#4B4E60"/>
<path d="M423.75 125.08C413.91 127.11 396.73 127.33 396.73 127.33C387.76 127.62 374.65 127.14 374.25 127.13C373.85 127.11 370.94 126.94 370.65 127.09C369.76 127.54 369.07 131.81 369.07 131.81C369.07 131.81 385.01 132.28 389.82 132.19C408.01 132.19 415.42 130.96 419.94 130.21C420.68 130.09 421.41 129.99 422.02 129.88C423.98 129.52 425.89 127.51 427.18 125.86C428.67 123.94 428.64 123.31 428.64 123.31C428.64 123.31 427.7 124.26 423.76 125.07" fill="#CF4149"/>
<path d="M218.9 157.98H221.6V170.69H228.04V173.12H218.9V157.98Z" fill="#4B4E60"/>
<path d="M233.71 157.98H243.75V160.42H236.41V164.14H243.36V166.58H236.41V170.69H244.13V173.12H233.71V157.98Z" fill="#4B4E60"/>
<path d="M253.59 160.42H248.95V157.98H260.93V160.42H256.28V173.12H253.59V160.42Z" fill="#4B4E60"/>
<path d="M267.39 157.98H270L268.18 163.62H265.89L267.39 157.98Z" fill="#4B4E60"/>
<path d="M283.93 161.23C283.65 160.82 283.26 160.51 282.79 160.32C282.31 160.13 281.81 160.03 281.28 160.03C280.97 160.03 280.66 160.07 280.37 160.14C280.08 160.21 279.81 160.33 279.58 160.48C279.34 160.64 279.16 160.84 279.01 161.09C278.87 161.34 278.8 161.63 278.8 161.98C278.8 162.49 278.98 162.89 279.33 163.16C279.69 163.43 280.13 163.67 280.66 163.87C281.19 164.07 281.76 164.26 282.39 164.45C283.02 164.64 283.6 164.89 284.12 165.22C284.65 165.55 285.09 165.98 285.45 166.53C285.81 167.08 285.98 167.79 285.98 168.69C285.98 169.5 285.83 170.21 285.53 170.82C285.23 171.43 284.83 171.93 284.32 172.33C283.81 172.73 283.23 173.03 282.55 173.23C281.88 173.43 281.17 173.53 280.43 173.53C279.49 173.53 278.58 173.37 277.71 173.06C276.84 172.75 276.09 172.22 275.46 171.48L277.49 169.51C277.82 170.01 278.25 170.4 278.78 170.68C279.32 170.96 279.88 171.1 280.48 171.1C280.79 171.1 281.11 171.06 281.42 170.97C281.73 170.88 282.02 170.75 282.27 170.58C282.53 170.41 282.73 170.19 282.89 169.93C283.05 169.67 283.13 169.36 283.13 169.02C283.13 168.46 282.95 168.04 282.59 167.74C282.23 167.44 281.79 167.19 281.26 166.98C280.73 166.77 280.15 166.58 279.53 166.39C278.9 166.2 278.32 165.95 277.8 165.63C277.27 165.31 276.83 164.88 276.47 164.35C276.11 163.82 275.94 163.1 275.94 162.2C275.94 161.42 276.1 160.74 276.42 160.17C276.74 159.6 277.16 159.13 277.68 158.75C278.2 158.37 278.8 158.09 279.47 157.9C280.14 157.71 280.83 157.62 281.52 157.62C282.32 157.62 283.09 157.74 283.84 157.98C284.59 158.22 285.26 158.62 285.86 159.18L283.89 161.25L283.93 161.23Z" fill="#4B4E60"/>
<path d="M302.52 157.98H307.61C308.34 157.98 309.04 158.05 309.72 158.19C310.4 158.33 310.99 158.57 311.51 158.91C312.02 159.24 312.43 159.69 312.74 160.26C313.05 160.82 313.2 161.53 313.2 162.37C313.2 163.33 313.03 164.1 312.71 164.68C312.38 165.27 311.94 165.72 311.38 166.04C310.82 166.36 310.18 166.58 309.44 166.69C308.7 166.8 307.94 166.86 307.14 166.86H305.21V173.13H302.51V157.98H302.52ZM306.84 164.54C307.23 164.54 307.62 164.53 308.04 164.5C308.45 164.47 308.83 164.39 309.19 164.24C309.54 164.1 309.82 163.88 310.04 163.6C310.26 163.31 310.37 162.91 310.37 162.4C310.37 161.93 310.27 161.56 310.07 161.28C309.87 161 309.61 160.79 309.3 160.64C308.99 160.49 308.64 160.39 308.25 160.35C307.86 160.31 307.49 160.29 307.14 160.29H305.21V164.55H306.84V164.54Z" fill="#4B4E60"/>
<path d="M324.2 157.98H326.53L333.06 173.13H329.98L328.57 169.66H322L320.63 173.13H317.61L324.2 157.98ZM327.62 167.35L325.29 161.19L322.91 167.35H327.62Z" fill="#4B4E60"/>
<path d="M338.45 157.98H343.71C344.44 157.98 345.14 158.05 345.82 158.18C346.5 158.32 347.1 158.55 347.63 158.88C348.16 159.21 348.58 159.65 348.89 160.21C349.2 160.77 349.36 161.47 349.36 162.33C349.36 163.43 349.06 164.35 348.45 165.09C347.84 165.83 346.98 166.28 345.85 166.44L349.87 173.14H346.62L343.11 166.72H341.14V173.14H338.44V157.99L338.45 157.98ZM343.24 164.39C343.63 164.39 344.01 164.37 344.4 164.34C344.79 164.3 345.14 164.22 345.46 164.08C345.78 163.94 346.04 163.74 346.24 163.46C346.44 163.18 346.54 162.79 346.54 162.29C346.54 161.85 346.45 161.49 346.26 161.22C346.07 160.95 345.83 160.75 345.53 160.61C345.23 160.47 344.9 160.38 344.53 160.34C344.17 160.3 343.81 160.28 343.47 160.28H341.14V164.39H343.24Z" fill="#4B4E60"/>
<path d="M358.73 160.42H354.09V157.98H366.07V160.42H361.43V173.12H358.73V160.42Z" fill="#4B4E60"/>
<path d="M371.61 157.98H375.18L382.52 169.23H382.57V157.98H385.26V173.12H381.84L374.35 161.51H374.31V173.12H371.61V157.98Z" fill="#4B4E60"/>
<path d="M392.34 157.98H402.38V160.42H395.04V164.14H401.99V166.58H395.04V170.69H402.76V173.12H392.34V157.98Z" fill="#4B4E60"/>
<path d="M409.12 157.98H414.38C415.11 157.98 415.81 158.05 416.49 158.18C417.17 158.32 417.77 158.55 418.3 158.88C418.83 159.21 419.25 159.65 419.56 160.21C419.87 160.77 420.03 161.47 420.03 162.33C420.03 163.43 419.73 164.35 419.12 165.09C418.51 165.83 417.65 166.28 416.52 166.44L420.54 173.14H417.29L413.78 166.72H411.81V173.14H409.11V157.99L409.12 157.98ZM413.91 164.39C414.3 164.39 414.68 164.37 415.07 164.34C415.46 164.3 415.81 164.22 416.13 164.08C416.45 163.94 416.71 163.74 416.91 163.46C417.11 163.18 417.21 162.79 417.21 162.29C417.21 161.85 417.12 161.49 416.93 161.22C416.74 160.95 416.5 160.75 416.2 160.61C415.9 160.47 415.57 160.38 415.2 160.34C414.84 160.3 414.48 160.28 414.14 160.28H411.81V164.39H413.91Z" fill="#4B4E60"/>
<path d="M436.34 157.98H446.11V160.42H439.03V164.39H445.71V166.83H439.03V173.12H436.34V157.98Z" fill="#4B4E60"/>
<path d="M451.51 165.61C451.51 164.4 451.71 163.3 452.11 162.31C452.51 161.32 453.06 160.47 453.77 159.77C454.48 159.07 455.32 158.53 456.29 158.15C457.27 157.77 458.34 157.58 459.51 157.58C460.7 157.57 461.78 157.74 462.76 158.11C463.75 158.47 464.59 159 465.31 159.7C466.02 160.4 466.58 161.24 466.98 162.22C467.38 163.2 467.58 164.3 467.58 165.51C467.58 166.72 467.38 167.77 466.98 168.74C466.58 169.71 466.02 170.55 465.31 171.24C464.6 171.94 463.75 172.48 462.76 172.88C461.78 173.27 460.69 173.47 459.51 173.49C458.34 173.49 457.27 173.3 456.29 172.92C455.31 172.54 454.47 172.01 453.77 171.32C453.06 170.63 452.51 169.8 452.11 168.83C451.71 167.86 451.51 166.78 451.51 165.6M454.33 165.44C454.33 166.25 454.45 167 454.7 167.69C454.95 168.37 455.3 168.97 455.76 169.47C456.22 169.97 456.76 170.36 457.4 170.65C458.03 170.94 458.74 171.08 459.53 171.08C460.32 171.08 461.03 170.94 461.67 170.65C462.31 170.37 462.86 169.97 463.32 169.47C463.78 168.97 464.13 168.38 464.38 167.69C464.63 167.01 464.76 166.26 464.76 165.44C464.76 164.69 464.64 163.98 464.38 163.32C464.13 162.66 463.78 162.09 463.32 161.6C462.86 161.11 462.31 160.72 461.67 160.44C461.03 160.16 460.31 160.02 459.53 160.02C458.75 160.02 458.04 160.16 457.4 160.44C456.77 160.72 456.22 161.1 455.76 161.6C455.3 162.09 454.95 162.67 454.7 163.32C454.45 163.98 454.33 164.68 454.33 165.44Z" fill="#4B4E60"/>
<path d="M473.84 157.98H479.1C479.83 157.98 480.53 158.05 481.21 158.18C481.89 158.32 482.49 158.55 483.02 158.88C483.55 159.21 483.97 159.65 484.28 160.21C484.59 160.77 484.75 161.47 484.75 162.33C484.75 163.43 484.45 164.35 483.84 165.09C483.24 165.83 482.37 166.28 481.24 166.44L485.26 173.14H482.01L478.5 166.72H476.53V173.14H473.83V157.99L473.84 157.98ZM478.64 164.39C479.03 164.39 479.41 164.37 479.8 164.34C480.18 164.3 480.54 164.22 480.86 164.08C481.18 163.94 481.44 163.74 481.64 163.46C481.84 163.18 481.94 162.79 481.94 162.29C481.94 161.85 481.85 161.49 481.66 161.22C481.47 160.95 481.23 160.75 480.93 160.61C480.63 160.47 480.3 160.38 479.93 160.34C479.57 160.3 479.21 160.28 478.87 160.28H476.54V164.39H478.64Z" fill="#4B4E60"/>
<path d="M501.06 157.98H503.76V170.69H510.2V173.12H501.06V157.98Z" fill="#4B4E60"/>
<path d="M518.5 157.98H515.8V173.13H518.5V157.98Z" fill="#4B4E60"/>
<path d="M525.52 157.98H535.29V160.42H528.21V164.39H534.89V166.83H528.21V173.12H525.52V157.98Z" fill="#4B4E60"/>
<path d="M541.5 157.98H551.53V160.42H544.19V164.14H551.15V166.58H544.19V170.69H551.92V173.12H541.5V157.98Z" fill="#4B4E60"/>
<path d="M156.52 0H0V239.99H156.52V0Z" fill="#2F3140"/>
<path d="M74.3285 55.0893H38.751V41.0616H91.4057V54.4794L62.6388 113.03H44.85L74.3285 55.0893Z" fill="#585664"/>
<path d="M127.8 81.1301C108.51 85.1101 74.83 85.5402 74.83 85.5402C57.24 86.1102 31.54 85.1702 30.76 85.1402C29.98 85.1102 24.27 84.7801 23.71 85.0602C21.96 85.9502 20.61 94.3102 20.61 94.3102C20.61 94.3102 51.86 95.2302 61.29 95.0602C96.95 95.0602 111.48 92.6402 120.33 91.1802C121.78 90.9402 123.22 90.7502 124.4 90.5302C128.25 89.8302 131.99 85.8902 134.51 82.6502C137.44 78.8802 137.38 77.6602 137.38 77.6602C137.38 77.6602 135.54 79.5202 127.81 81.1202" fill="#CF4149"/>
<path d="M90.1386 74.2895H54.5611V60.2618H107.216V73.6796L78.4489 132.23H60.6601L90.1386 74.2895Z" fill="#837C89"/>
<path d="M40.5532 151.491L36.4408 145.214H39.44L41.759 149.311L44.2172 145.214H47.0773L42.9649 151.491V156.16H40.5532V151.491ZM47.9807 145.214H55.417V147.441H50.3925V149.481H55.1387V151.708H50.3925V153.934H55.6953V156.16H47.9807V145.214ZM61.2281 145.214H63.2225L67.9842 156.16H65.2632L64.3201 153.841H60.0686L59.1565 156.16H56.4974L61.2281 145.214ZM62.1557 148.399L60.8262 151.8H63.5008L62.1557 148.399ZM69.0851 145.214H73.3211C73.8777 145.214 74.4033 145.271 74.898 145.385C75.4031 145.488 75.8411 145.668 76.2121 145.926C76.5935 146.173 76.8924 146.513 77.1088 146.946C77.3356 147.369 77.4489 147.899 77.4489 148.538C77.4489 149.311 77.248 149.971 76.846 150.517C76.444 151.053 75.8566 151.393 75.0836 151.538L77.8664 156.16H74.9753L72.6873 151.785H71.4968V156.16H69.0851V145.214ZM71.4968 149.744H72.9192C73.1356 149.744 73.3623 149.739 73.5994 149.729C73.8468 149.708 74.0683 149.662 74.2642 149.59C74.46 149.507 74.6198 149.384 74.7434 149.219C74.8774 149.054 74.9444 148.822 74.9444 148.523C74.9444 148.245 74.8877 148.023 74.7744 147.858C74.661 147.693 74.5167 147.57 74.3415 147.487C74.1663 147.394 73.9653 147.332 73.7385 147.302C73.5118 147.271 73.2902 147.255 73.0738 147.255H71.4968V149.744ZM84.5209 147.889C84.3251 147.642 84.0571 147.461 83.717 147.348C83.3872 147.224 83.0728 147.162 82.7739 147.162C82.5987 147.162 82.4184 147.183 82.2328 147.224C82.0473 147.266 81.8721 147.332 81.7072 147.425C81.5423 147.508 81.4083 147.621 81.3052 147.765C81.2022 147.91 81.1506 148.085 81.1506 148.291C81.1506 148.621 81.2743 148.873 81.5217 149.049C81.769 149.224 82.0782 149.373 82.4493 149.497C82.8306 149.621 83.2377 149.744 83.6706 149.868C84.1035 149.992 84.5055 150.167 84.8765 150.394C85.2578 150.62 85.5722 150.924 85.8196 151.306C86.0669 151.687 86.1906 152.197 86.1906 152.836C86.1906 153.444 86.0772 153.975 85.8505 154.429C85.6237 154.882 85.3145 155.258 84.9229 155.557C84.5415 155.856 84.0932 156.078 83.5779 156.222C83.0728 156.366 82.5369 156.438 81.97 156.438C81.2589 156.438 80.5992 156.33 79.9911 156.114C79.383 155.897 78.8162 155.547 78.2905 155.062L80.0066 153.176C80.254 153.506 80.5632 153.764 80.9342 153.949C81.3155 154.125 81.7072 154.212 82.1092 154.212C82.305 154.212 82.5008 154.192 82.6966 154.15C82.9028 154.099 83.0831 154.027 83.2377 153.934C83.4026 153.841 83.5315 153.723 83.6242 153.578C83.7273 153.434 83.7788 153.264 83.7788 153.068C83.7788 152.738 83.65 152.481 83.3923 152.295C83.145 152.099 82.8306 151.934 82.4493 151.8C82.0679 151.666 81.6557 151.532 81.2125 151.398C80.7693 151.264 80.357 151.084 79.9757 150.857C79.5943 150.631 79.2748 150.332 79.0172 149.961C78.7698 149.59 78.6461 149.1 78.6461 148.492C78.6461 147.905 78.7595 147.389 78.9862 146.946C79.2233 146.503 79.5325 146.132 79.9138 145.833C80.3055 145.534 80.7538 145.312 81.2589 145.168C81.7639 145.013 82.2844 144.936 82.8203 144.936C83.4387 144.936 84.0365 145.024 84.6137 145.199C85.1908 145.374 85.7113 145.668 86.1751 146.08L84.5209 147.889ZM91.9745 150.687C91.9745 149.811 92.1187 149.018 92.4073 148.306C92.7062 147.595 93.1185 146.992 93.6441 146.498C94.1698 145.993 94.7933 145.606 95.5148 145.338C96.2363 145.07 97.0247 144.936 97.8802 144.936C98.7356 144.936 99.5241 145.07 100.246 145.338C100.967 145.606 101.591 145.993 102.116 146.498C102.642 146.992 103.049 147.595 103.338 148.306C103.636 149.018 103.786 149.811 103.786 150.687C103.786 151.563 103.636 152.357 103.338 153.068C103.049 153.779 102.642 154.387 102.116 154.892C101.591 155.387 100.967 155.769 100.246 156.036C99.5241 156.304 98.7356 156.438 97.8802 156.438C97.0247 156.438 96.2363 156.304 95.5148 156.036C94.7933 155.769 94.1698 155.387 93.6441 154.892C93.1185 154.387 92.7062 153.779 92.4073 153.068C92.1187 152.357 91.9745 151.563 91.9745 150.687ZM94.479 150.687C94.479 151.203 94.5563 151.677 94.7109 152.11C94.8758 152.532 95.1077 152.903 95.4066 153.223C95.7055 153.532 96.061 153.774 96.4733 153.949C96.8959 154.125 97.3648 154.212 97.8802 154.212C98.3955 154.212 98.8593 154.125 99.2716 153.949C99.6941 153.774 100.055 153.532 100.354 153.223C100.653 152.903 100.879 152.532 101.034 152.11C101.199 151.677 101.281 151.203 101.281 150.687C101.281 150.182 101.199 149.713 101.034 149.28C100.879 148.848 100.653 148.477 100.354 148.167C100.055 147.848 99.6941 147.6 99.2716 147.425C98.8593 147.25 98.3955 147.162 97.8802 147.162C97.3648 147.162 96.8959 147.25 96.4733 147.425C96.061 147.6 95.7055 147.848 95.4066 148.167C95.1077 148.477 94.8758 148.848 94.7109 149.28C94.5563 149.713 94.479 150.182 94.479 150.687ZM105.518 145.214H112.861V147.441H107.93V149.667H112.49V151.893H107.93V156.16H105.518V145.214Z" fill="#77717E"/>
<path d="M25.3923 161.054H27.804V172H25.3923V161.054ZM29.9978 161.054H33.2753L37.9287 168.661H37.9597V161.054H40.3714V172H37.2176L32.4404 164.208H32.4095V172H29.9978V161.054ZM42.6043 161.054H45.8818L50.5353 168.661H50.5662V161.054H52.978V172H49.8241L45.047 164.208H45.0161V172H42.6043V161.054ZM54.6234 166.527C54.6234 165.651 54.7677 164.857 55.0563 164.146C55.3551 163.435 55.7674 162.832 56.2931 162.337C56.8187 161.832 57.4422 161.446 58.1637 161.178C58.8852 160.91 59.6736 160.776 60.5291 160.776C61.3845 160.776 62.173 160.91 62.8945 161.178C63.6159 161.446 64.2395 161.832 64.7651 162.337C65.2908 162.832 65.6979 163.435 65.9865 164.146C66.2854 164.857 66.4348 165.651 66.4348 166.527C66.4348 167.403 66.2854 168.197 65.9865 168.908C65.6979 169.619 65.2908 170.227 64.7651 170.732C64.2395 171.227 63.6159 171.608 62.8945 171.876C62.173 172.144 61.3845 172.278 60.5291 172.278C59.6736 172.278 58.8852 172.144 58.1637 171.876C57.4422 171.608 56.8187 171.227 56.2931 170.732C55.7674 170.227 55.3551 169.619 55.0563 168.908C54.7677 168.197 54.6234 167.403 54.6234 166.527ZM57.1279 166.527C57.1279 167.042 57.2052 167.517 57.3598 167.949C57.5247 168.372 57.7566 168.743 58.0555 169.063C58.3544 169.372 58.71 169.614 59.1222 169.789C59.5448 169.964 60.0138 170.052 60.5291 170.052C61.0444 170.052 61.5082 169.964 61.9205 169.789C62.3431 169.614 62.7038 169.372 63.0027 169.063C63.3016 168.743 63.5283 168.372 63.6829 167.949C63.8478 167.517 63.9303 167.042 63.9303 166.527C63.9303 166.022 63.8478 165.553 63.6829 165.12C63.5283 164.687 63.3016 164.316 63.0027 164.007C62.7038 163.688 62.3431 163.44 61.9205 163.265C61.5082 163.09 61.0444 163.002 60.5291 163.002C60.0138 163.002 59.5448 163.09 59.1222 163.265C58.71 163.44 58.3544 163.688 58.0555 164.007C57.7566 164.316 57.5247 164.687 57.3598 165.12C57.2052 165.553 57.1279 166.022 57.1279 166.527ZM66.9919 161.054H69.7437L72.4492 168.228H72.4802L75.232 161.054H77.8139L73.2995 172H71.367L66.9919 161.054ZM81.7162 161.054H83.7105L88.4722 172H85.7512L84.8082 169.681H80.5567L79.6445 172H76.9854L81.7162 161.054ZM82.6438 164.239L81.3142 167.64H83.9888L82.6438 164.239ZM90.272 163.188H87.149V161.054H95.8066V163.188H92.6837V172H90.272V163.188ZM97.0004 161.054H99.4122V172H97.0004V161.054ZM101.018 166.527C101.018 165.651 101.163 164.857 101.451 164.146C101.75 163.435 102.163 162.832 102.688 162.337C103.214 161.832 103.837 161.446 104.559 161.178C105.28 160.91 106.069 160.776 106.924 160.776C107.78 160.776 108.568 160.91 109.29 161.178C110.011 161.446 110.635 161.832 111.16 162.337C111.686 162.832 112.093 163.435 112.382 164.146C112.68 164.857 112.83 165.651 112.83 166.527C112.83 167.403 112.68 168.197 112.382 168.908C112.093 169.619 111.686 170.227 111.16 170.732C110.635 171.227 110.011 171.608 109.29 171.876C108.568 172.144 107.78 172.278 106.924 172.278C106.069 172.278 105.28 172.144 104.559 171.876C103.837 171.608 103.214 171.227 102.688 170.732C102.163 170.227 101.75 169.619 101.451 168.908C101.163 168.197 101.018 167.403 101.018 166.527ZM103.523 166.527C103.523 167.042 103.6 167.517 103.755 167.949C103.92 168.372 104.152 168.743 104.451 169.063C104.749 169.372 105.105 169.614 105.517 169.789C105.94 169.964 106.409 170.052 106.924 170.052C107.44 170.052 107.903 169.964 108.316 169.789C108.738 169.614 109.099 169.372 109.398 169.063C109.697 168.743 109.923 168.372 110.078 167.949C110.243 167.517 110.325 167.042 110.325 166.527C110.325 166.022 110.243 165.553 110.078 165.12C109.923 164.687 109.697 164.316 109.398 164.007C109.099 163.688 108.738 163.44 108.316 163.265C107.903 163.09 107.44 163.002 106.924 163.002C106.409 163.002 105.94 163.09 105.517 163.265C105.105 163.44 104.749 163.688 104.451 164.007C104.152 164.316 103.92 164.687 103.755 165.12C103.6 165.553 103.523 166.022 103.523 166.527ZM114.469 161.054H117.747L122.4 168.661H122.431V161.054H124.843V172H121.689L116.912 164.208H116.881V172H114.469V161.054Z" fill="#77717E"/>
</g>
<defs>
<clipPath id="clip0_1_57">
<rect width="551.92" height="239.99" fill="white"/>
</clipPath>
</defs>
</svg>
