<svg width="236" height="127" viewBox="0 0 236 127" fill="none" xmlns="http://www.w3.org/2000/svg">
<path d="M24.214 52.0472L5 106.177L59.1025 87.0038M15.1126 10.0588H15.1632M106.126 35.353H106.177M70.732 5H70.7826M106.126 96.0591H106.177M106.126 5L94.8001 8.79413C91.5761 9.86857 88.8252 12.03 87.0175 14.9089C85.2099 17.7878 84.4578 21.2054 84.8897 24.5777C85.3953 28.9283 82.0076 32.8236 77.5581 32.8236H75.6367C71.2882 32.8236 67.5466 35.8589 66.7376 40.1083L65.6757 45.4707M106.126 60.6472L101.98 58.9778C97.6316 57.2578 92.7776 59.9896 91.9686 64.5931C91.4124 68.1343 88.328 70.7649 84.738 70.7649H80.8447M50.5068 5L52.1754 9.14825C53.8945 13.4988 51.1641 18.3553 46.5629 19.1648C43.0235 19.6706 40.3942 22.8071 40.3942 26.3989V30.2942" stroke="black" stroke-width="9" stroke-linecap="round" stroke-linejoin="round"/>
<path d="M50.5068 60.6466C60.2655 70.4101 64.8162 81.7419 60.6194 85.9408C56.4227 90.1396 45.0966 85.5866 35.3379 75.8231C25.5792 66.0595 21.0285 54.7277 25.2253 50.5289C29.422 46.3301 40.7481 50.883 50.5068 60.6466Z" stroke="black" stroke-width="9" stroke-linecap="round" stroke-linejoin="round"/>
<path d="M211.41 67.7307L230.624 121.86L176.522 102.687M220.512 25.7423H220.461M129.498 51.0365H129.447M164.892 20.6835H164.842M129.498 111.743H129.447M129.498 20.6835L140.824 24.4776C144.048 25.552 146.799 27.7134 148.607 30.5923C150.414 33.4712 151.166 36.8889 150.735 40.2612C150.229 44.6118 153.617 48.5071 158.066 48.5071H159.988C164.336 48.5071 168.078 51.5424 168.887 55.7918L169.949 61.1542M129.498 76.3307L133.644 74.6613C137.993 72.9413 142.847 75.6731 143.656 80.2766C144.212 83.8178 147.296 86.4484 150.886 86.4484H154.78M185.117 20.6835L183.449 24.8317C181.73 29.1823 184.46 34.0388 189.061 34.8482C192.601 35.3541 195.23 38.4906 195.23 42.0824V45.9777" stroke="black" stroke-width="9" stroke-linecap="round" stroke-linejoin="round"/>
<path d="M185.117 76.3308C175.359 86.0943 170.808 97.4261 175.005 101.625C179.202 105.824 190.528 101.271 200.286 91.5073C210.045 81.7437 214.596 70.4119 210.399 66.2131C206.202 62.0143 194.876 66.5672 185.117 76.3308Z" stroke="black" stroke-width="9" stroke-linecap="round" stroke-linejoin="round"/>
</svg>
