<svg width="166" height="161" viewBox="0 0 166 161" fill="none" xmlns="http://www.w3.org/2000/svg">
<path d="M9.69189 47.6587H57.3242V0H9.69189V47.6587ZM21.6 11.9147H45.4161V35.744H21.6V11.9147ZM9.69189 107.232H57.3242V59.5734H9.69189V107.232ZM21.6 71.4881H45.4161V95.3174H21.6V71.4881ZM69.2322 0V47.6587H116.864V0H69.2322ZM104.956 35.744H81.1403V11.9147H104.956V35.744ZM69.2918 59.5734H81.1998V71.4881H69.2918V59.5734ZM81.1998 71.4881H93.1079V83.4028H81.1998V71.4881ZM69.2918 83.4028H81.1998V95.3174H69.2918V83.4028ZM93.1079 83.4028H105.016V95.3174H93.1079V83.4028ZM105.016 95.3174H116.924V107.232H105.016V95.3174ZM81.1998 95.3174H93.1079V107.232H81.1998V95.3174ZM93.1079 59.5734H105.016V71.4881H93.1079V59.5734ZM105.016 71.4881H116.924V83.4028H105.016V71.4881Z" fill="black"/>
</svg>
