<svg width="144" height="133" viewBox="0 0 144 133" fill="none" xmlns="http://www.w3.org/2000/svg">
<path d="M38.4385 66.5H105.316M112.003 32.3333H112.063M37.101 107.5C37.101 107.5 42.4511 120.313 31.7508 128M106.653 107.5C106.653 107.5 101.303 120.313 112.003 128M71.8771 107.5V128M98.6279 5C114.27 5 122.088 5 127.8 8.66267C130.779 10.5749 133.298 13.1488 135.169 16.193C138.754 22.0287 138.754 30.01 138.754 46C138.754 61.99 138.754 69.9713 135.163 75.807C133.294 78.8472 130.78 81.4186 127.806 83.3305C122.082 87 114.264 87 98.6279 87H45.1262C29.4837 87 21.6658 87 15.9545 83.3305C12.9766 81.4222 10.4577 78.853 8.58461 75.8138C5 69.9645 5 61.9763 5 46C5 30.0237 5 22.0287 8.58461 16.193C10.4561 13.1488 12.9752 10.5749 15.9545 8.66267C21.6658 5 29.477 5 45.1262 5H98.6279Z" stroke="black" stroke-width="10" stroke-linecap="round" stroke-linejoin="round"/>
</svg>
