<?xml version="1.0" encoding="UTF-8"?>
<svg id="Layer_1" xmlns="http://www.w3.org/2000/svg" viewBox="0 0 253.77 60.72">
  <defs>
    <style>
      .cls-1, .cls-2 {
        fill: #72768a;
      }

      .cls-2 {
        font-family: Avenir-Heavy, Avenir;
        font-size: 16px;
        font-weight: 800;
        letter-spacing: .17em;
      }

      .cls-3 {
        fill: #cf4149;
      }
    </style>
  </defs>
  <polygon class="cls-1" points="81.11 33.26 74.16 33.26 74.16 5.48 65.18 5.48 65.18 .06 90.15 .06 90.15 5.48 81.11 5.48 81.11 33.26"/>
  <polygon class="cls-1" points="109.92 33.26 102.97 33.26 102.97 5.48 93.99 5.48 93.99 .06 118.96 .06 118.96 5.48 109.92 5.48 109.92 33.26"/>
  <polygon class="cls-1" points="136.52 6.17 136.02 6.17 127.77 33.26 120.82 33.26 130.93 .06 141.55 .06 151.66 33.26 144.71 33.26 142.62 26.3 136.52 6.17"/>
  <path class="cls-1" d="M159.68.06h6.78l12.31,18.64c.57.89.94,1.54,1.13,1.96.19.43.3.9.34,1.43h.34V.06h6.95v33.2h-6.83l-12.26-18.64c-.57-.85-.93-1.49-1.1-1.91-.17-.42-.29-.92-.37-1.49h-.34v22.04h-6.95V.06Z"/>
  <polyline class="cls-1" points="21.22 0 8.17 13.69 8.17 0 1.23 0 1.23 33.32 8.17 33.32 8.17 18.89 22.28 33.32 33.43 33.32 14.36 15.66 30.5 0"/>
  <polygon class="cls-1" points="201.82 27.86 215.92 27.86 215.92 33.25 194.9 33.25 194.9 .17 215.92 .17 215.92 5.57 201.82 5.57 201.82 14.2 213.39 14.2 213.39 19.23 201.82 19.23 201.82 27.86"/>
  <polygon class="cls-1" points="44.41 27.86 58.51 27.86 58.51 33.25 37.48 33.25 37.48 .17 58.51 .17 58.51 5.57 44.41 5.57 44.41 14.2 55.97 14.2 55.97 19.23 44.41 19.23 44.41 27.86"/>
  <rect class="cls-1" x="223.14" y=".06" width="6.95" height="33.2"/>
  <rect class="cls-1" x="243.31" y=".06" width="6.95" height="33.2"/>
  <rect class="cls-1" x="232.21" y="14.2" width="8.97" height="5.03"/>
  <path class="cls-3" d="M154.44,17.84c-7.36,1.52-20.21,1.68-20.21,1.68-6.71.22-16.51-.14-16.81-.15-.3-.01-2.48-.14-2.69-.03-.67.34-1.18,3.53-1.18,3.53,0,0,11.92.35,15.52.29,13.6,0,19.15-.92,22.52-1.48.55-.09,1.1-.16,1.55-.25,1.47-.27,2.89-1.77,3.86-3.01,1.12-1.44,1.09-1.9,1.09-1.9,0,0-.7.71-3.65,1.32"/>
  <text class="cls-2" transform="translate(0 53.77)"><tspan x="0" y="0">LET’S PARTNER FOR LIFE</tspan></text>
</svg>