<?xml version="1.0" encoding="UTF-8"?>
<svg xmlns="http://www.w3.org/2000/svg" version="1.1" viewBox="0 0 461.4 126.6">
  <defs>
    <style>
      .cls-1 {
        fill: #fff;
      }

      .cls-2 {
        fill: #cf4149;
      }
    </style>
  </defs>
  <!-- Generator: Adobe Illustrator 28.7.3, SVG Export Plug-In . SVG Version: 1.2.0 Build 164)  -->
  <g>
    <g id="Layer_1">
      <g>
        <polygon class="cls-1" points="152.6 74.3 140.5 74.3 140.5 25.7 124.7 25.7 124.7 16.2 168.4 16.2 168.4 25.7 152.6 25.7 152.6 74.3"/>
        <polygon class="cls-1" points="203 74.3 190.9 74.3 190.9 25.7 175.1 25.7 175.1 16.2 218.8 16.2 218.8 25.7 203 25.7 203 74.3"/>
        <polygon class="cls-1" points="249.6 26.9 248.7 26.9 234.2 74.3 222.1 74.3 239.8 16.2 258.4 16.2 276.1 74.3 263.9 74.3 260.2 62.1 249.6 26.9"/>
        <path class="cls-1" d="M290.1,16.2h11.9l21.5,32.6c1,1.5,1.6,2.7,2,3.4.3.7.5,1.6.6,2.5h.6V16.2h12.2v58.1h-12l-21.4-32.6c-1-1.5-1.6-2.6-1.9-3.3-.3-.7-.5-1.6-.6-2.6h-.6v38.6h-12.2V16.2Z"/>
        <polyline class="cls-1" points="47.8 16.1 25 40.1 25 16.1 12.8 16.1 12.8 74.4 25 74.4 25 49.2 49.7 74.4 69.2 74.4 35.8 43.5 64.1 16.1"/>
        <polygon class="cls-1" points="363.8 64.9 388.5 64.9 388.5 74.3 351.7 74.3 351.7 16.4 388.5 16.4 388.5 25.9 363.8 25.9 363.8 41 384.1 41 384.1 49.8 363.8 49.8 363.8 64.9"/>
        <polygon class="cls-1" points="88.4 64.9 113.1 64.9 113.1 74.3 76.3 74.3 76.3 16.4 113.1 16.4 113.1 25.9 88.4 25.9 88.4 41 108.6 41 108.6 49.8 88.4 49.8 88.4 64.9"/>
        <rect class="cls-1" x="401.1" y="16.2" width="12.2" height="58.1"/>
        <rect class="cls-1" x="436.4" y="16.2" width="12.2" height="58.1"/>
        <rect class="cls-1" x="417" y="41" width="15.7" height="8.8"/>
        <path class="cls-2" d="M280.9,47.3c-12.9,2.7-35.4,2.9-35.4,2.9-11.7.4-28.9-.2-29.4-.3-.5,0-4.3-.2-4.7,0-1.2.6-2.1,6.2-2.1,6.2,0,0,20.9.6,27.2.5,23.8,0,33.5-1.6,39.4-2.6,1-.2,1.9-.3,2.7-.4,2.6-.5,5.1-3.1,6.7-5.3,2-2.5,1.9-3.3,1.9-3.3,0,0-1.2,1.2-6.4,2.3"/>
        <g>
          <path class="cls-1" d="M12.8,91.3h2.4v16.8h8.1v2h-10.5v-18.9Z"/>
          <path class="cls-1" d="M40.6,101.4h-7.3v6.8h8.2v2h-10.6v-18.9h10.2v2h-7.8v6h7.3v2Z"/>
          <path class="cls-1" d="M53.1,93.4h-5.7v-2.1h14v2.1h-5.8v16.8h-2.5v-16.8Z"/>
          <path class="cls-1" d="M71.3,91c-.6,2.4-1.8,5.3-2.6,6.6l-1.6.2c.6-1.7,1.3-4.6,1.7-6.6l2.5-.3Z"/>
          <path class="cls-1" d="M78.5,107.2c1.1.7,2.7,1.2,4.4,1.2,2.5,0,3.9-1.3,3.9-3.2s-1-2.8-3.6-3.8c-3.1-1.1-5-2.7-5-5.3s2.4-5.1,6.1-5.1,3.3.4,4.2.9l-.7,2c-.6-.3-1.9-.9-3.6-.9-2.6,0-3.6,1.5-3.6,2.8s1.1,2.6,3.8,3.6c3.2,1.2,4.8,2.8,4.8,5.5s-2.2,5.4-6.6,5.4-3.8-.5-4.8-1.2l.6-2Z"/>
          <path class="cls-1" d="M108.3,91.6c1.2-.2,2.7-.4,4.7-.4s4.2.6,5.3,1.6c1,.9,1.7,2.3,1.7,3.9s-.5,3.1-1.5,4c-1.3,1.4-3.4,2.1-5.8,2.1s-1.4,0-2-.2v7.6h-2.4v-18.6ZM110.7,100.7c.5.1,1.2.2,2,.2,2.9,0,4.7-1.4,4.7-4s-1.8-3.7-4.5-3.7-1.9,0-2.3.2v7.3Z"/>
          <path class="cls-1" d="M131.1,104.3l-2,5.9h-2.5l6.4-18.9h2.9l6.4,18.9h-2.6l-2-5.9h-6.7ZM137.3,102.4l-1.8-5.4c-.4-1.2-.7-2.4-1-3.4h0c-.3,1.1-.6,2.3-1,3.4l-1.8,5.5h5.7Z"/>
          <path class="cls-1" d="M150,91.6c1.2-.3,3-.4,4.7-.4,2.6,0,4.3.5,5.5,1.5,1,.8,1.5,2.1,1.5,3.6,0,2.5-1.6,4.1-3.6,4.8h0c1.5.6,2.3,1.9,2.8,3.9.6,2.6,1.1,4.5,1.5,5.2h-2.5c-.3-.5-.7-2.2-1.3-4.5-.6-2.6-1.6-3.6-3.8-3.7h-2.3v8.2h-2.4v-18.6ZM152.5,100.2h2.5c2.6,0,4.3-1.4,4.3-3.6s-1.8-3.5-4.3-3.5c-1.2,0-2,.1-2.4.2v6.9Z"/>
          <path class="cls-1" d="M173.5,93.4h-5.7v-2.1h14v2.1h-5.8v16.8h-2.5v-16.8Z"/>
          <path class="cls-1" d="M188.7,110.2v-18.9h2.7l6,9.5c1.4,2.2,2.5,4.2,3.4,6.1h0c-.2-2.5-.3-4.8-.3-7.8v-7.9h2.3v18.9h-2.5l-6-9.6c-1.3-2.1-2.6-4.3-3.5-6.3h0c.1,2.4.2,4.7.2,7.8v8.1h-2.3Z"/>
          <path class="cls-1" d="M221.7,101.4h-7.3v6.8h8.2v2h-10.6v-18.9h10.2v2h-7.8v6h7.3v2Z"/>
          <path class="cls-1" d="M230.6,91.6c1.2-.3,3-.4,4.7-.4,2.6,0,4.3.5,5.5,1.5,1,.8,1.5,2.1,1.5,3.6,0,2.5-1.6,4.1-3.6,4.8h0c1.5.6,2.3,1.9,2.8,3.9.6,2.6,1.1,4.5,1.5,5.2h-2.5c-.3-.5-.7-2.2-1.3-4.5-.6-2.6-1.6-3.6-3.8-3.7h-2.3v8.2h-2.4v-18.6ZM233,100.2h2.5c2.6,0,4.3-1.4,4.3-3.6s-1.8-3.5-4.3-3.5c-1.2,0-2,.1-2.4.2v6.9Z"/>
          <path class="cls-1" d="M261.2,91.3h10.2v2h-7.7v6.3h7.1v2h-7.1v8.5h-2.4v-18.9Z"/>
          <path class="cls-1" d="M295.8,100.6c0,6.5-3.9,9.9-8.8,9.9s-8.5-3.9-8.5-9.6,3.7-9.9,8.8-9.9,8.5,3.9,8.5,9.5ZM281.2,100.9c0,4,2.2,7.6,6,7.6s6-3.6,6-7.8-2-7.7-6-7.7-6,3.7-6,7.9Z"/>
          <path class="cls-1" d="M303.9,91.6c1.2-.3,3-.4,4.7-.4,2.6,0,4.3.5,5.5,1.5,1,.8,1.5,2.1,1.5,3.6,0,2.5-1.6,4.1-3.6,4.8h0c1.5.6,2.3,1.9,2.8,3.9.6,2.6,1.1,4.5,1.5,5.2h-2.5c-.3-.5-.7-2.2-1.3-4.5-.6-2.6-1.6-3.6-3.8-3.7h-2.3v8.2h-2.4v-18.6ZM306.3,100.2h2.5c2.6,0,4.3-1.4,4.3-3.6s-1.8-3.5-4.3-3.5c-1.2,0-2,.1-2.4.2v6.9Z"/>
          <path class="cls-1" d="M334.5,91.3h2.4v16.8h8.1v2h-10.5v-18.9Z"/>
          <path class="cls-1" d="M355,91.3v18.9h-2.4v-18.9h2.4Z"/>
          <path class="cls-1" d="M364.1,91.3h10.2v2h-7.7v6.3h7.1v2h-7.1v8.5h-2.4v-18.9Z"/>
          <path class="cls-1" d="M392.4,101.4h-7.3v6.8h8.2v2h-10.6v-18.9h10.2v2h-7.8v6h7.3v2Z"/>
        </g>
      </g>
    </g>
  </g>
</svg>