<?xml version="1.0" encoding="UTF-8"?>
<svg id="Layer_1" xmlns="http://www.w3.org/2000/svg" version="1.1" viewBox="0 0 267 66">
  <!-- Generator: Adobe Illustrator 29.2.1, SVG Export Plug-In . SVG Version: 2.1.0 Build 116)  -->
  <defs>
    <style>
      .st0 {
        fill: #fff;
      }

      .st1 {
        fill: #cf4149;
      }
    </style>
  </defs>
  <polygon class="st0" points="88.9 39.2 81.9 39.2 81.9 11.4 72.9 11.4 72.9 6 97.9 6 97.9 11.4 88.9 11.4 88.9 39.2"/>
  <polygon class="st0" points="117.7 39.2 110.7 39.2 110.7 11.4 101.7 11.4 101.7 6 126.7 6 126.7 11.4 117.7 11.4 117.7 39.2"/>
  <polygon class="st0" points="144.3 12.1 143.8 12.1 135.5 39.2 128.6 39.2 138.7 6 149.3 6 159.4 39.2 152.5 39.2 150.4 32.3 144.3 12.1"/>
  <path class="st0" d="M167.4,6h6.8l12.3,18.6c.6.9.9,1.5,1.1,2,.2.4.3.9.3,1.4h.3V6h7v33.2h-6.8l-12.3-18.6c-.6-.9-.9-1.5-1.1-1.9s-.3-.9-.4-1.5h-.3v22h-7V6h0Z"/>
  <polyline class="st0" points="29 6 15.9 19.6 15.9 6 9 6 9 39.3 15.9 39.3 15.9 24.9 30 39.3 41.2 39.3 22.1 21.6 38.2 6"/>
  <polygon class="st0" points="209.6 33.8 223.7 33.8 223.7 39.2 202.6 39.2 202.6 6.1 223.7 6.1 223.7 11.5 209.6 11.5 209.6 20.2 221.1 20.2 221.1 25.2 209.6 25.2 209.6 33.8"/>
  <polygon class="st0" points="52.1 33.8 66.2 33.8 66.2 39.2 45.2 39.2 45.2 6.1 66.2 6.1 66.2 11.5 52.1 11.5 52.1 20.2 63.7 20.2 63.7 25.2 52.1 25.2 52.1 33.8"/>
  <rect class="st0" x="230.9" y="6" width="7" height="33.2"/>
  <rect class="st0" x="251" y="6" width="7" height="33.2"/>
  <rect class="st0" x="240" y="20.2" width="9" height="5"/>
  <path class="st1" d="M162.2,23.8c-7.4,1.5-20.2,1.7-20.2,1.7-6.7.2-16.5-.1-16.8-.1s-2.5-.1-2.7,0c-.7.3-1.2,3.5-1.2,3.5,0,0,11.9.4,15.5.3,13.6,0,19.1-.9,22.5-1.5.5,0,1.1-.2,1.5-.2,1.5-.3,2.9-1.8,3.9-3,1.1-1.4,1.1-1.9,1.1-1.9,0,0-.7.7-3.6,1.3"/>
  <g>
    <path class="st0" d="M9,48.4h2v9.5h4.8v1.8h-6.8v-11.3h0Z"/>
    <path class="st0" d="M20.1,48.4h7.5v1.8h-5.5v2.8h5.2v1.8h-5.2v3.1h5.8v1.8h-7.8v-11.3h0Z"/>
    <path class="st0" d="M34.9,50.2h-3.5v-1.8h9v1.8h-3.5v9.5h-2v-9.5Z"/>
    <path class="st0" d="M45.3,48.4h1.9l-1.4,4.2h-1.7l1.1-4.2h0Z"/>
    <path class="st0" d="M57.6,50.8c-.2-.3-.5-.5-.9-.7s-.7-.2-1.1-.2-.5,0-.7,0-.4.1-.6.3c-.2.1-.3.3-.4.5-.1.2-.2.4-.2.7,0,.4.1.7.4.9s.6.4,1,.5.8.3,1.3.4c.5.1.9.3,1.3.6.4.2.7.6,1,1,.3.4.4.9.4,1.6s-.1,1.1-.3,1.6c-.2.5-.5.8-.9,1.1-.4.3-.8.5-1.3.7s-1,.2-1.6.2-1.4-.1-2-.4-1.2-.6-1.7-1.2l1.5-1.5c.2.4.6.7,1,.9s.8.3,1.3.3.5,0,.7-.1c.2,0,.4-.2.6-.3s.4-.3.5-.5c.1-.2.2-.4.2-.7,0-.4-.1-.7-.4-1-.3-.2-.6-.4-1-.6-.4-.1-.8-.3-1.3-.4s-.9-.3-1.3-.6c-.4-.2-.7-.6-1-1-.3-.4-.4-.9-.4-1.6s.1-1.1.4-1.5.6-.8.9-1.1.8-.5,1.3-.6c.5-.1,1-.2,1.5-.2s1.2,0,1.7.3c.6.2,1.1.5,1.5.9l-1.5,1.5h0Z"/>
    <path class="st0" d="M71.5,48.4h3.8c.5,0,1.1,0,1.6.2.5.1.9.3,1.3.5.4.2.7.6.9,1s.3,1,.3,1.6-.1,1.3-.4,1.7-.6.8-1,1c-.4.2-.9.4-1.4.5s-1.1.1-1.7.1h-1.4v4.7h-2v-11.3h0ZM74.8,53.3c.3,0,.6,0,.9,0s.6,0,.9-.2c.3-.1.5-.3.6-.5.2-.2.2-.5.2-.9s0-.6-.2-.8c-.1-.2-.3-.4-.6-.5-.2-.1-.5-.2-.8-.2-.3,0-.6,0-.8,0h-1.4v3.2h1.2,0Z"/>
    <path class="st0" d="M87.7,48.4h1.7l4.9,11.3h-2.3l-1.1-2.6h-4.9l-1,2.6h-2.3l4.9-11.3ZM90.3,55.4l-1.7-4.6-1.8,4.6h3.5Z"/>
    <path class="st0" d="M98.4,48.4h3.9c.5,0,1.1,0,1.6.1.5.1,1,.3,1.4.5s.7.6.9,1c.2.4.4.9.4,1.6s-.2,1.5-.7,2.1c-.5.5-1.1.9-1.9,1l3,5h-2.4l-2.6-4.8h-1.5v4.8h-2v-11.3h0ZM102,53.2c.3,0,.6,0,.9,0s.5,0,.8-.2c.2-.1.4-.3.6-.5s.2-.5.2-.9,0-.6-.2-.8-.3-.4-.5-.5c-.2-.1-.5-.2-.7-.2s-.5,0-.8,0h-1.7v3.1h1.6Z"/>
    <path class="st0" d="M113.6,50.2h-3.5v-1.8h9v1.8h-3.5v9.5h-2v-9.5Z"/>
    <path class="st0" d="M123.2,48.4h2.7l5.5,8.4h0v-8.4h2v11.3h-2.6l-5.6-8.7h0v8.7h-2v-11.3Z"/>
    <path class="st0" d="M138.7,48.4h7.5v1.8h-5.5v2.8h5.2v1.8h-5.2v3.1h5.8v1.8h-7.8v-11.3h0Z"/>
    <path class="st0" d="M151.2,48.4h3.9c.5,0,1.1,0,1.6.1.5.1,1,.3,1.4.5s.7.6.9,1,.4.9.4,1.6-.2,1.5-.7,2.1c-.5.5-1.1.9-1.9,1l3,5h-2.4l-2.6-4.8h-1.5v4.8h-2v-11.3h0ZM154.8,53.2c.3,0,.6,0,.9,0s.5,0,.8-.2c.2-.1.4-.3.6-.5s.2-.5.2-.9,0-.6-.2-.8-.3-.4-.5-.5c-.2-.1-.5-.2-.7-.2s-.5,0-.8,0h-1.7v3.1h1.6Z"/>
    <path class="st0" d="M171.6,48.4h7.3v1.8h-5.3v3h5v1.8h-5v4.7h-2v-11.3h0Z"/>
    <path class="st0" d="M182.9,54.1c0-.9.1-1.7.5-2.5s.7-1.4,1.2-1.9,1.2-.9,1.9-1.2,1.5-.4,2.4-.4c.9,0,1.7.1,2.4.4.7.3,1.4.7,1.9,1.2s1,1.1,1.2,1.9.5,1.6.5,2.5-.1,1.7-.5,2.4c-.3.7-.7,1.4-1.2,1.9-.5.5-1.2.9-1.9,1.2-.7.3-1.5.5-2.4.5-.9,0-1.7-.1-2.4-.4s-1.4-.7-1.9-1.2c-.5-.5-.9-1.1-1.2-1.9-.3-.7-.5-1.5-.5-2.4ZM185,54c0,.6,0,1.2.3,1.7s.5,1,.8,1.3c.3.4.8.7,1.2.9s1,.3,1.6.3,1.1-.1,1.6-.3c.5-.2.9-.5,1.2-.9s.6-.8.8-1.3.3-1.1.3-1.7,0-1.1-.3-1.6-.5-.9-.8-1.3-.8-.7-1.2-.9c-.5-.2-1-.3-1.6-.3s-1.1.1-1.6.3-.9.5-1.2.9c-.3.4-.6.8-.8,1.3-.2.5-.3,1-.3,1.6Z"/>
    <path class="st0" d="M199.6,48.4h3.9c.5,0,1.1,0,1.6.1.5.1,1,.3,1.4.5s.7.6.9,1,.4.9.4,1.6-.2,1.5-.7,2.1c-.5.5-1.1.9-1.9,1l3,5h-2.4l-2.6-4.8h-1.5v4.8h-2v-11.3h0ZM203.2,53.2c.3,0,.6,0,.9,0s.5,0,.8-.2c.2-.1.4-.3.6-.5s.2-.5.2-.9,0-.6-.2-.8-.3-.4-.5-.5c-.2-.1-.5-.2-.7-.2s-.5,0-.8,0h-1.7v3.1h1.6Z"/>
    <path class="st0" d="M220,48.4h2v9.5h4.8v1.8h-6.8v-11.3h0Z"/>
    <path class="st0" d="M231,48.4h2v11.3h-2v-11.3Z"/>
    <path class="st0" d="M238.3,48.4h7.3v1.8h-5.3v3h5v1.8h-5v4.7h-2v-11.3h0Z"/>
    <path class="st0" d="M250.2,48.4h7.5v1.8h-5.5v2.8h5.2v1.8h-5.2v3.1h5.8v1.8h-7.8v-11.3h0Z"/>
  </g>
</svg>