<?xml version="1.0" encoding="UTF-8"?>
<svg id="Layer_1" xmlns="http://www.w3.org/2000/svg" version="1.1" viewBox="0 0 263 64">
  <!-- Generator: Adobe Illustrator 29.2.1, SVG Export Plug-In . SVG Version: 2.1.0 Build 116)  -->
  <defs>
    <style>
      .st0 {
        fill: #72768a;
      }

      .st1 {
        fill: #cf4149;
      }
    </style>
  </defs>
  <polygon class="st0" points="86.9 38.2 79.9 38.2 79.9 10.4 70.9 10.4 70.9 5 95.9 5 95.9 10.4 86.9 10.4 86.9 38.2"/>
  <polygon class="st0" points="115.7 38.2 108.7 38.2 108.7 10.4 99.7 10.4 99.7 5 124.7 5 124.7 10.4 115.7 10.4 115.7 38.2"/>
  <polygon class="st0" points="142.3 11.1 141.8 11.1 133.5 38.2 126.6 38.2 136.7 5 147.3 5 157.4 38.2 150.5 38.2 148.4 31.3 142.3 11.1"/>
  <path class="st0" d="M165.4,5h6.8l12.3,18.6c.6.9.9,1.5,1.1,2,.2.4.3.9.3,1.4h.3V5h7v33.2h-6.8l-12.3-18.6c-.6-.9-.9-1.5-1.1-1.9s-.3-.9-.4-1.5h-.3v22h-7V5h0Z"/>
  <polyline class="st0" points="27 5 13.9 18.6 13.9 5 7 5 7 38.3 13.9 38.3 13.9 23.9 28 38.3 39.2 38.3 20.1 20.6 36.2 5"/>
  <polygon class="st0" points="207.6 32.8 221.7 32.8 221.7 38.2 200.6 38.2 200.6 5.1 221.7 5.1 221.7 10.5 207.6 10.5 207.6 19.2 219.1 19.2 219.1 24.2 207.6 24.2 207.6 32.8"/>
  <polygon class="st0" points="50.1 32.8 64.3 32.8 64.3 38.2 43.2 38.2 43.2 5.1 64.3 5.1 64.3 10.5 50.1 10.5 50.1 19.2 61.7 19.2 61.7 24.2 50.1 24.2 50.1 32.8"/>
  <rect class="st0" x="228.9" y="5" width="7" height="33.2"/>
  <rect class="st0" x="249.1" y="5" width="7" height="33.2"/>
  <rect class="st0" x="238" y="19.2" width="9" height="5"/>
  <path class="st1" d="M160.2,22.8c-7.4,1.5-20.2,1.7-20.2,1.7-6.7.2-16.5-.1-16.8-.1-.3,0-2.5-.1-2.7,0-.7.3-1.2,3.5-1.2,3.5,0,0,11.9.4,15.5.3,13.6,0,19.1-.9,22.5-1.5.5,0,1.1-.2,1.5-.2,1.5-.3,2.9-1.8,3.9-3,1.1-1.4,1.1-1.9,1.1-1.9,0,0-.7.7-3.6,1.3"/>
  <g>
    <path class="st0" d="M7,47.4h2v9.5h4.8v1.8h-6.8v-11.3h0Z"/>
    <path class="st0" d="M18.1,47.4h7.5v1.8h-5.5v2.8h5.2v1.8h-5.2v3.1h5.8v1.8h-7.8v-11.3h0Z"/>
    <path class="st0" d="M32.9,49.2h-3.5v-1.8h9v1.8h-3.5v9.5h-2v-9.5Z"/>
    <path class="st0" d="M43.3,47.4h1.9l-1.4,4.2h-1.7l1.1-4.2h0Z"/>
    <path class="st0" d="M55.6,49.8c-.2-.3-.5-.5-.9-.7-.4-.1-.7-.2-1.1-.2s-.5,0-.7,0c-.2,0-.4.1-.6.3-.2.1-.3.3-.4.5-.1.2-.2.4-.2.7,0,.4.1.7.4.9.3.2.6.4,1,.5s.8.3,1.3.4c.5.1.9.3,1.3.6s.7.6,1,1c.3.4.4.9.4,1.6s-.1,1.1-.3,1.6-.5.8-.9,1.1c-.4.3-.8.5-1.3.7s-1,.2-1.6.2-1.4-.1-2-.4-1.2-.6-1.7-1.2l1.5-1.5c.2.4.6.7,1,.9s.8.3,1.3.3.5,0,.7-.1c.2,0,.4-.2.6-.3s.4-.3.5-.5c.1-.2.2-.4.2-.7,0-.4-.1-.7-.4-1-.3-.2-.6-.4-1-.6-.4-.1-.8-.3-1.3-.4s-.9-.3-1.3-.6-.7-.6-1-1c-.3-.4-.4-.9-.4-1.6s.1-1.1.4-1.5.6-.8.9-1.1.8-.5,1.3-.6,1-.2,1.5-.2,1.2,0,1.7.3c.6.2,1.1.5,1.5.9l-1.5,1.5h0Z"/>
    <path class="st0" d="M69.5,47.4h3.8c.5,0,1.1,0,1.6.2.5.1.9.3,1.3.5.4.2.7.6.9,1s.3,1,.3,1.6-.1,1.3-.4,1.7-.6.8-1,1c-.4.2-.9.4-1.4.5s-1.1.1-1.7.1h-1.4v4.7h-2v-11.3h0ZM72.8,52.3c.3,0,.6,0,.9,0s.6,0,.9-.2c.3-.1.5-.3.6-.5.2-.2.2-.5.2-.9s0-.6-.2-.8c-.1-.2-.3-.4-.6-.5-.2-.1-.5-.2-.8-.2-.3,0-.6,0-.8,0h-1.4v3.2h1.2,0Z"/>
    <path class="st0" d="M85.7,47.4h1.7l4.9,11.3h-2.3l-1.1-2.6h-4.9l-1,2.6h-2.3l4.9-11.3ZM88.3,54.4l-1.7-4.6-1.8,4.6h3.5Z"/>
    <path class="st0" d="M96.4,47.4h3.9c.5,0,1.1,0,1.6.1.5.1,1,.3,1.4.5s.7.6.9,1c.2.4.4.9.4,1.6s-.2,1.5-.7,2.1c-.5.5-1.1.9-1.9,1l3,5h-2.4l-2.6-4.8h-1.5v4.8h-2v-11.3h0ZM100,52.2c.3,0,.6,0,.9,0,.3,0,.5,0,.8-.2.2-.1.4-.3.6-.5s.2-.5.2-.9,0-.6-.2-.8c-.1-.2-.3-.4-.5-.5-.2-.1-.5-.2-.7-.2s-.5,0-.8,0h-1.7v3.1h1.6Z"/>
    <path class="st0" d="M111.6,49.2h-3.5v-1.8h9v1.8h-3.5v9.5h-2v-9.5Z"/>
    <path class="st0" d="M121.2,47.4h2.7l5.5,8.4h0v-8.4h2v11.3h-2.6l-5.6-8.7h0v8.7h-2v-11.3Z"/>
    <path class="st0" d="M136.7,47.4h7.5v1.8h-5.5v2.8h5.2v1.8h-5.2v3.1h5.8v1.8h-7.8v-11.3h0Z"/>
    <path class="st0" d="M149.2,47.4h3.9c.5,0,1.1,0,1.6.1.5.1,1,.3,1.4.5s.7.6.9,1,.4.9.4,1.6-.2,1.5-.7,2.1c-.5.5-1.1.9-1.9,1l3,5h-2.4l-2.6-4.8h-1.5v4.8h-2v-11.3h0ZM152.8,52.2c.3,0,.6,0,.9,0,.3,0,.5,0,.8-.2.2-.1.4-.3.6-.5s.2-.5.2-.9,0-.6-.2-.8c-.1-.2-.3-.4-.5-.5-.2-.1-.5-.2-.7-.2s-.5,0-.8,0h-1.7v3.1h1.6Z"/>
    <path class="st0" d="M169.6,47.4h7.3v1.8h-5.3v3h5v1.8h-5v4.7h-2v-11.3h0Z"/>
    <path class="st0" d="M180.9,53.1c0-.9.1-1.7.5-2.5s.7-1.4,1.2-1.9,1.2-.9,1.9-1.2c.7-.3,1.5-.4,2.4-.4.9,0,1.7.1,2.4.4.7.3,1.4.7,1.9,1.2s1,1.1,1.2,1.9c.3.7.5,1.6.5,2.5s-.1,1.7-.5,2.4c-.3.7-.7,1.4-1.2,1.9-.5.5-1.2.9-1.9,1.2-.7.3-1.5.5-2.4.5-.9,0-1.7-.1-2.4-.4s-1.4-.7-1.9-1.2-.9-1.1-1.2-1.9-.5-1.5-.5-2.4ZM183.1,53c0,.6,0,1.2.3,1.7.2.5.5,1,.8,1.3s.8.7,1.2.9,1,.3,1.6.3,1.1-.1,1.6-.3c.5-.2.9-.5,1.2-.9s.6-.8.8-1.3c.2-.5.3-1.1.3-1.7s0-1.1-.3-1.6-.5-.9-.8-1.3-.8-.7-1.2-.9c-.5-.2-1-.3-1.6-.3s-1.1.1-1.6.3-.9.5-1.2.9c-.3.4-.6.8-.8,1.3s-.3,1-.3,1.6Z"/>
    <path class="st0" d="M197.6,47.4h3.9c.5,0,1.1,0,1.6.1.5.1,1,.3,1.4.5s.7.6.9,1,.4.9.4,1.6-.2,1.5-.7,2.1c-.5.5-1.1.9-1.9,1l3,5h-2.4l-2.6-4.8h-1.5v4.8h-2v-11.3h0ZM201.2,52.2c.3,0,.6,0,.9,0,.3,0,.5,0,.8-.2.2-.1.4-.3.6-.5s.2-.5.2-.9,0-.6-.2-.8c-.1-.2-.3-.4-.5-.5-.2-.1-.5-.2-.7-.2s-.5,0-.8,0h-1.7v3.1h1.6Z"/>
    <path class="st0" d="M218,47.4h2v9.5h4.8v1.8h-6.8v-11.3h0Z"/>
    <path class="st0" d="M229,47.4h2v11.3h-2v-11.3Z"/>
    <path class="st0" d="M236.3,47.4h7.3v1.8h-5.3v3h5v1.8h-5v4.7h-2v-11.3h0Z"/>
    <path class="st0" d="M248.2,47.4h7.5v1.8h-5.5v2.8h5.2v1.8h-5.2v3.1h5.8v1.8h-7.8v-11.3h0Z"/>
  </g>
</svg>