<svg width="33" height="43" viewBox="0 0 33 43" fill="none" xmlns="http://www.w3.org/2000/svg">
<path d="M7.26975 20.3946C7.24713 21.1316 7.17172 21.8535 7.19434 22.598C7.23205 23.7937 7.56386 28.1328 8.12944 28.9675C9.10225 30.4114 12.4731 28.9074 14.0719 30.4565C14.6525 31.013 15.7007 33.1337 16.1758 33.9609C17.4201 36.1492 18.9057 37.5781 17.4126 40.0296C15.7309 42.7895 13.4686 43.4813 10.437 42.7068C5.65595 41.4885 3.28049 37.0892 1.72702 32.7877C-1.43272 24.0343 -0.648439 7.62545 7.39795 1.57176C9.98456 -0.375951 14.366 -0.759477 16.6208 1.84248C17.6162 2.98554 18.5588 4.40684 17.9103 5.95598C17.4201 7.12912 15.0748 11.1749 14.2755 12.1225C13.9814 12.4759 13.4082 13.055 12.9935 13.243C11.7793 13.7919 9.00421 12.8294 8.12944 13.9799C7.45828 14.8598 7.315 19.1162 7.26975 20.4021V20.3946Z" fill="white"/>
<path d="M30.5944 21.1768C30.5567 17.2814 29.4708 13.416 27.0878 10.2576C26.8239 8.49786 28.3019 8.00905 29.4633 9.37771C34.0181 14.717 33.8824 25.2376 30.7151 31.2086C30.2023 32.1712 29.1088 34.5174 27.8193 34.1189C25.8661 33.5173 27.8495 31.3891 28.3623 30.4265C29.9157 27.4711 30.6246 24.4781 30.5944 21.1692V21.1768Z" fill="white"/>
<path d="M22.8196 29.306C22.8573 28.8999 23.8904 27.08 24.1242 26.4182C25.2478 23.1996 25.1272 19.229 23.9658 16.0405C23.5511 14.8974 21.8392 12.5587 23.7019 12.0473C25.0367 11.6788 25.6928 13.7769 26.0924 14.7696C27.5403 18.3943 27.759 22.7785 26.6505 26.516C26.3564 27.5087 25.4364 30.2084 24.4862 30.5769C23.7622 30.8626 22.7593 30.0053 22.8271 29.306H22.8196Z" fill="white"/>
<path d="M19.5241 26.9973C17.5483 26.8469 18.868 24.2524 19.0415 23.1846C19.2602 21.9062 19.2376 20.4397 18.9661 19.1688C18.7398 18.116 17.8274 16.8301 18.5815 16.0254C19.411 15.1531 20.2254 15.5893 20.7081 16.5218C21.5904 18.2288 21.8015 21.485 21.5225 23.3726C21.3717 24.3953 20.8815 27.0875 19.5241 26.9897V26.9973Z" fill="white"/>
</svg>
