<svg width="44" height="44" viewBox="0 0 44 44" fill="none" xmlns="http://www.w3.org/2000/svg">
<path d="M21.6179 1.35719e-05C31.5561 -0.169478 41.0951 7.00001 43.3715 16.6695C47.2364 33.0763 32.7453 47.3475 16.3599 43.3051C14.6696 42.8898 12.1213 41.3051 10.7538 41.2966C8.81709 41.2882 1.55454 44.0848 0.654151 43.8305C0.161487 43.6949 0.144498 43.2627 0.195463 42.822C0.484267 40.2966 2.62481 35.9661 2.69276 33.5678C2.73523 32.161 1.01091 29.1187 0.61168 27.4237C-2.61612 13.7627 7.36458 0.245776 21.6179 1.35719e-05ZM5.52133 38.4831C5.82712 38.7882 10.2866 37.1526 11.3738 37.2034C12.6989 37.2627 15.5955 39.2204 17.4897 39.661C38.5043 44.4661 48.6974 16.5763 31.3862 6.52544C17.3113 -1.661 0.679633 10.5085 4.34913 26.5339C4.76535 28.3729 6.75299 31.4661 6.80396 32.6356C6.85492 33.7204 5.20705 38.1695 5.52133 38.4746V38.4831Z" fill="#F8FDFA"/>
<path d="M33.0171 26.8391C33.4588 27.5425 32.8982 29.6442 32.3885 30.373C29.8487 34.0171 24.0472 31.9238 20.9383 30.2035C16.7931 27.8984 9.99778 20.7882 11.0426 15.712C11.4843 13.5679 14.143 10.4323 16.3005 12.3984C16.6318 12.7035 18.475 17.0594 18.475 17.4747C18.4835 18.7374 16.3684 19.5255 16.7252 20.7967C17.2179 22.534 23.1638 27.8306 24.9221 27.3815C25.9584 27.1187 26.7653 24.6018 27.8271 24.5848C28.1159 24.5848 32.8557 26.6018 33.0086 26.8391H33.0171Z" fill="#F8FDFA"/>
</svg>
