<svg width="24" height="24" viewBox="0 0 24 24" fill="none" xmlns="http://www.w3.org/2000/svg">
<path fill-rule="evenodd" clip-rule="evenodd" d="M18.9852 16.9453C18.696 17.7637 17.5464 18.4418 16.6296 18.6398C16.002 18.7718 15.1836 18.8782 12.426 17.7346C9.3288 16.4518 5.028 11.8815 5.028 8.83945C5.028 7.29145 5.9208 5.48789 7.482 5.48789C8.2332 5.48789 8.3988 5.50209 8.646 6.09609C8.9352 6.79449 9.64081 8.5154 9.7248 8.6918C10.0716 9.4154 9.37199 9.83892 8.86439 10.4701C8.70239 10.6597 8.51881 10.865 8.72401 11.2178C8.92801 11.5634 9.6336 12.7126 10.6704 13.6354C12.0096 14.8294 13.0956 15.2101 13.4844 15.3721C13.7736 15.4921 14.1192 15.4647 14.3304 15.2391C14.598 14.9499 14.9304 14.4697 15.2688 13.9969C15.5076 13.6573 15.8112 13.615 16.1292 13.735C16.344 13.8094 19.074 15.0779 19.1892 15.2807C19.2744 15.4283 19.2744 16.1269 18.9852 16.9453ZM12.0024 0H11.9964C5.38079 0 0 5.382 0 12C0 14.6244 0.846008 17.0578 2.28481 19.0318L0.789606 23.4926L5.40121 22.0178C7.35807 23.3149 9.65469 24.0044 12.0024 24C18.618 24 24 18.618 24 12C24 5.382 18.618 0 12.0024 0Z" fill="#BB4A52"/>
</svg>
